<?xml version="1.0" encoding="UTF-8" standalone="no"?>
<!-- Created with Inkscape (http://www.inkscape.org/) -->

<svg
   width="1067.4138mm"
   height="1067.4138mm"
   viewBox="0 0 1067.4138 1067.4138"
   version="1.1"
   id="svg5"
   inkscape:version="1.1.1 (3bf5ae0d25, 2021-09-20)"
   sodipodi:docname="TemporalFixation.svg"
   inkscape:export-filename="C:\Users\MeAndUnique\AppData\Roaming\SmiteWorks\Fantasy Grounds\extensions\TemporalFixation\graphics\icons\TemporalFixation_Big.png"
   inkscape:export-xdpi="7.1399999"
   inkscape:export-ydpi="7.1399999"
   xmlns:inkscape="http://www.inkscape.org/namespaces/inkscape"
   xmlns:sodipodi="http://sodipodi.sourceforge.net/DTD/sodipodi-0.dtd"
   xmlns="http://www.w3.org/2000/svg"
   xmlns:svg="http://www.w3.org/2000/svg">
  <sodipodi:namedview
     id="namedview7"
     pagecolor="#505050"
     bordercolor="#eeeeee"
     borderopacity="1"
     inkscape:pageshadow="0"
     inkscape:pageopacity="0"
     inkscape:pagecheckerboard="0"
     inkscape:document-units="mm"
     showgrid="false"
     inkscape:zoom="0.11313708"
     inkscape:cx="3504.598"
     inkscape:cy="1312.567"
     inkscape:window-width="1920"
     inkscape:window-height="1017"
     inkscape:window-x="1912"
     inkscape:window-y="-8"
     inkscape:window-maximized="1"
     inkscape:current-layer="g834" />
  <defs
     id="defs2">
    <clipPath
       clipPathUnits="userSpaceOnUse"
       id="clipPath838">
      <path
         d="M 0,3401.57 H 3401.57 V 0 H 0 Z"
         id="path836" />
    </clipPath>
  </defs>
  <g
     inkscape:label="Layer 1"
     inkscape:groupmode="layer"
     id="layer1"
     transform="translate(499.43768,366.6444)">
    <g
       id="g834"
       clip-path="url(#clipPath838)"
       transform="matrix(0.35277777,0,0,-0.35277777,-565.72984,767.06164)"
       style="display:inline"
       inkscape:export-filename="C:\Users\MeAndUnique\AppData\Roaming\SmiteWorks\Fantasy Grounds\extensions\TemporalFixation\graphics\icons\TemporalFixation_Big.png"
       inkscape:export-xdpi="7.1387501"
       inkscape:export-ydpi="7.1387501">
      <g
         id="g840"
         transform="translate(3213.6548,1700.785)"
         style="fill:#232323;fill-opacity:1">
        <path
           d="m 0,0 c 0,-835.535 -677.335,-1512.87 -1512.87,-1512.87 -835.535,0 -1512.87,677.335 -1512.87,1512.87 0,835.535 677.335,1512.87 1512.87,1512.87 C -677.335,1512.87 0,835.535 0,0"
           style="fill:#232323;fill-opacity:1;fill-rule:nonzero;stroke:none"
           id="path842" />
      </g>
      <g
         id="g844"
         transform="translate(2548.8818,2236.2253)"
         style="fill:#ff6160;fill-opacity:1">
        <path
           d="m 0,0 c 98.709,157.729 50.865,365.613 -106.865,464.323 -157.729,98.709 -365.614,50.863 -464.323,-106.866 l 260.175,-162.821 -54.349,-86.845 c -137.152,96.117 -304.037,152.7 -484.23,152.7 -179.282,0 -345.402,-55.998 -482.16,-151.229 l -53.429,85.374 260.175,162.821 C -1223.715,515.186 -1431.6,563.032 -1589.329,464.323 -1747.058,365.613 -1794.903,157.729 -1696.194,0 l 260.175,162.821 56.107,-89.656 c -191.837,-154.894 -314.64,-391.871 -314.64,-657.634 0,-314.038 171.452,-587.856 425.727,-733.506 l -93.693,-268.588 h 166.852 l 66.62,204.657 c 87.498,-30.663 181.485,-47.525 279.454,-47.525 99.693,0 195.294,17.393 284.095,49.096 l 67.132,-206.228 h 160.591 l -88.209,270.979 -0.5,-0.163 c 252.14,146.205 421.852,418.837 421.852,731.278 0,264.848 -121.936,501.135 -312.637,656.059 l 57.094,91.231 z"
           style="fill:#ff6160;fill-opacity:1;fill-rule:nonzero;stroke:none"
           id="path846" />
      </g>
      <g
         id="g848"
         transform="translate(2466.8489,1651.7554)"
         style="fill:#232323;fill-opacity:1">
        <path
           d="m 0,0 c 0,-423.085 -342.979,-766.064 -766.064,-766.064 -423.085,0 -766.064,342.979 -766.064,766.064 0,423.085 342.979,766.064 766.064,766.064 C -342.979,766.064 0,423.085 0,0"
           style="fill:#232323;fill-opacity:1;fill-rule:nonzero;stroke:none"
           id="path850" />
      </g>
      <path
         d="m 1735.143,2173.493 h -68.717 v 179.427 h 68.717 z"
         style="fill:#dedfde;fill-opacity:1;fill-rule:nonzero;stroke:none"
         id="path852"
         inkscape:export-filename="C:\Users\MeAndUnique\AppData\Roaming\SmiteWorks\Fantasy Grounds\extensions\TemporalFixation\graphics\icons\TemporalFixation_Big.png"
         inkscape:export-xdpi="7.1399999"
         inkscape:export-ydpi="7.1399999" />
      <path
         d="m 1735.143,965.225 h -68.717 v 179.427 h 68.717 z"
         style="fill:#dedfde;fill-opacity:1;fill-rule:nonzero;stroke:none"
         id="path854"
         inkscape:export-filename="C:\Users\MeAndUnique\AppData\Roaming\SmiteWorks\Fantasy Grounds\extensions\TemporalFixation\graphics\icons\TemporalFixation_Big.png"
         inkscape:export-xdpi="7.1399999"
         inkscape:export-ydpi="7.1399999" />
      <path
         d="m 2215.206,1693.431 h 179.427 v -68.717 h -179.427 z"
         style="fill:#dedfde;fill-opacity:1;fill-rule:nonzero;stroke:none"
         id="path856"
         inkscape:export-filename="C:\Users\MeAndUnique\AppData\Roaming\SmiteWorks\Fantasy Grounds\extensions\TemporalFixation\graphics\icons\TemporalFixation_Big.png"
         inkscape:export-xdpi="7.1399999"
         inkscape:export-ydpi="7.1399999" />
      <path
         d="m 1006.937,1693.431 h 179.427 v -68.717 h -179.427 z"
         style="fill:#dedfde;fill-opacity:1;fill-rule:nonzero;stroke:none"
         id="path858"
         inkscape:export-filename="C:\Users\MeAndUnique\AppData\Roaming\SmiteWorks\Fantasy Grounds\extensions\TemporalFixation\graphics\icons\TemporalFixation_Big.png"
         inkscape:export-xdpi="7.1399999"
         inkscape:export-ydpi="7.1399999" />
      <g
         id="g860"
         transform="translate(1916.0298,1987.6204)"
         style="fill:#dedfde;fill-opacity:1"
         inkscape:export-filename="C:\Users\MeAndUnique\AppData\Roaming\SmiteWorks\Fantasy Grounds\extensions\TemporalFixation\graphics\icons\TemporalFixation_Big.png"
         inkscape:export-xdpi="7.1399999"
         inkscape:export-ydpi="7.1399999">
        <path
           d="m 0,0 c -7.66,5.531 -18.453,3.788 -23.984,-3.873 l -171.983,-238.228 c -6.103,2.006 -12.503,3.362 -19.278,3.362 -34.287,0 -62.083,-27.796 -62.083,-62.084 0,-20.875 10.384,-39.245 26.183,-50.5 -1.045,-2.73 -1.878,-5.568 -2.195,-8.605 l -22.696,-217.377 c -1.962,-18.794 11.809,-35.778 30.605,-37.741 18.795,-1.961 35.777,11.81 37.74,30.606 l 22.697,217.375 c 0.426,4.083 -0.013,8.042 -0.963,11.818 19.435,10.488 32.796,30.791 32.796,54.424 0,15.016 -5.548,28.603 -14.421,39.339 L 3.874,-23.984 C 9.404,-16.323 7.661,-5.53 0,0"
           style="fill:#dedfde;fill-opacity:1;fill-rule:nonzero;stroke:none"
           id="path862" />
      </g>
    </g>
    <path
       d="m 432.55569,328.94849 -840.0406,-236.137338 -0.60478,-0.192744 -0.55098,-0.219691 -0.4862,-0.239295 -0.41158,-0.251817 -0.32493,-0.256516 -0.22847,-0.253909 -0.12108,-0.243852 -0.007,-0.227537 27.85529,-1.658108 -22.90972,-15.928296 27.85529,-1.658118 -22.90972,-15.928287 27.85529,-1.658108 -22.90963,-15.928203 27.8552,-1.658215 -22.90953,-15.928166 0.12471,-0.190506 0.23038,-0.145016 0.32729,-0.09761 0.41098,-0.04962 0.48248,-4.3e-4 0.5397,0.04897 0.58475,0.09953 0.61662,0.150606 840.0406,236.137336 0.60479,0.19272 0.55097,0.21971 0.48621,0.23928 0.41158,0.25178 0.32496,0.25641 0.22849,0.25387 0.12108,0.24385 0.007,0.22754 -27.85528,1.65812 22.90972,15.92828 -27.85529,1.65812 22.90972,15.92827 -27.85529,1.65812 22.90972,15.92829 -27.85539,1.65809 22.90983,15.92832 -0.12469,0.19046 -0.23039,0.14502 -0.32729,0.0976 -0.41096,0.0496 -0.48249,4.6e-4 -0.53968,-0.0491 -0.58474,-0.0995 z"
       fill="#f2f2f2"
       fill-opacity="0.73927"
       opacity="0.5342"
       stroke="#000000"
       stroke-width="0.611148"
       id="path1126"
       style="display:none;fill:#f2f286;fill-opacity:1;stroke:none;stroke-opacity:1" />
    <path
       style="fill:#ebddba;fill-opacity:1;stroke:none;stroke-width:1.57973;stroke-opacity:1"
       d="M 215.74559,193.89872 C 59.351396,149.84001 -149.47537,91.080872 -248.31388,63.322839 -347.15238,35.564802 -427.1266,12.658041 -426.03437,12.418932 c 1.09223,-0.239109 7.67285,-0.95661 14.62358,-1.594441 l 12.63773,-1.1596948 -11.45768,-8.1081703 c -13.007,-9.2045517 -12.6387,-10.0294537 4.47806,-10.0294537 6.01095,0 10.92896,-0.594867 10.92896,-1.321927 0,-0.7270572 -5.07292,-4.8146392 -11.2732,-9.0835122 l -11.27324,-7.761584 13.6684,-0.947073 c 7.51762,-0.52089 14.01379,-1.29247 14.43595,-1.714628 0.42213,-0.422154 -4.31562,-4.261274 -10.52841,-8.531376 l -11.29595,-7.763821 13.66231,-1.424578 c 7.51428,-0.783521 13.63981,-1.849845 13.6123,-2.369614 -0.0276,-0.519766 -4.6722,-4.060818 -10.32152,-7.869005 -5.64933,-3.808184 -9.96058,-7.234887 -9.58057,-7.614896 0.38001,-0.380007 45.36729,11.869593 99.97173,27.221335 54.60445,15.351743 126.64981,35.5993543 160.1008,44.994697 392.76368,110.31512 664.3181,186.82207 667.13513,187.95673 2.59828,1.04655 0.89746,1.46711 -6.80405,1.68239 -5.64756,0.15782 -12.40095,0.76262 -15.00751,1.34387 -4.7192,1.05237 -4.68973,1.08994 6.9826,8.89662 8.35433,5.58753 10.85044,7.96207 8.68857,8.26547 -1.66828,0.23415 -8.3397,0.94503 -14.8253,1.57976 l -11.79203,1.154 11.41465,7.79463 c 13.25321,9.05006 12.76232,10.31277 -4.02289,10.34822 -6.29923,0.0126 -11.45312,0.56048 -11.45312,1.21591 0,0.65544 5.48012,4.92075 12.1781,9.47842 l 12.17809,8.28676 -9.41355,0.0173 c -5.17745,0.009 -12.09982,0.46133 -15.38301,1.00395 l -5.96945,0.98656 12.17517,8.4745 c 6.6963,4.661 11.15976,8.40804 9.91879,8.32678 -1.24099,-0.0812 -130.21526,-36.19572 -286.60948,-80.2544 z"
       id="path3446"
       inkscape:export-filename="C:\Users\MeAndUnique\AppData\Roaming\SmiteWorks\Fantasy Grounds\extensions\TemporalFixation\graphics\icons\TemporalFixation_Big.png"
       inkscape:export-xdpi="7.1387501"
       inkscape:export-ydpi="7.1387501" />
    <path
       style="fill:#ebddba;fill-opacity:1;stroke:none;stroke-width:0.773352;stroke-opacity:1"
       d="m -356.88947,48.400011 c 14.81481,-40.4533796 34.53688,-94.4854 43.82687,-120.07114 9.28999,-25.58572 17.18304,-46.185371 17.54012,-45.776971 0.35705,0.40839 1.89933,2.70244 3.42726,5.0979 l 2.77805,4.35539 5.19566,-1.84028 c 5.89822,-2.08912 6.64545,-1.78008 9.08523,3.75737 0.85678,1.9446 2.05881,3.67257 2.67112,3.83992 0.61236,0.16733 3.33188,-0.53286 6.04341,-1.55608 l 4.93005,-1.86038 2.7459,4.63988 c 1.51024,2.551931 3.08602,4.831121 3.50174,5.064881 0.41573,0.23368 2.97377,-0.41526 5.68455,-1.44224 l 4.9287,-1.86721 3.14719,4.74782 c 1.73095,2.61131 3.50214,4.83843 3.93601,4.94919 0.43383,0.11075 2.75411,-0.57676 5.15618,-1.52777 2.40206,-0.95101 4.67355,-1.55697 5.04778,-1.34656 0.37423,0.21038 -3.5302,11.94457 -8.67646,26.07589 -5.14654,14.13122 -11.9299,32.77801 -15.07445,41.437171 -36.92534,101.669959 -62.65377,171.909728 -63.20788,172.559868 -0.51108,0.59967 -1.10771,-0.0474 -2.38678,-2.58845 -0.9379,-1.86337 -2.40988,-4.18738 -3.27096,-5.16443 -1.55898,-1.76896 -1.58642,-1.76807 -6.49755,0.21105 -3.5151,1.41652 -5.15918,1.67745 -5.72285,0.90823 -0.43501,-0.59362 -1.98463,-2.91552 -3.44366,-5.15979 l -2.65271,-4.08049 -4.93773,1.89853 c -5.733,2.20433 -6.86644,1.75487 -9.28881,-3.68349 -0.9085,-2.04076 -2.10454,-3.83421 -2.65657,-3.9851 -0.552,-0.15089 -3.36317,0.64019 -6.24702,1.75792 l -5.24336,2.03224 -1.35632,-3.04936 c -0.74544,-1.677 -2.11322,-4.02062 -3.03821,-5.20767 l -1.68173,-2.15826 -5.40191,1.98806 c -2.97107,1.09342 -5.49068,1.67487 -5.59913,1.29211 -0.10849,-0.38278 11.92396,-33.794205 26.73873,-74.247599 z"
       id="path3446-5"
       inkscape:export-filename="C:\Users\MeAndUnique\AppData\Roaming\SmiteWorks\Fantasy Grounds\extensions\TemporalFixation\graphics\icons\TemporalFixation_Big.png"
       inkscape:export-xdpi="7.1387501"
       inkscape:export-ydpi="7.1387501" />
    <path
       style="fill:#ebddba;fill-opacity:1;stroke:none;stroke-width:0.773352;stroke-opacity:1"
       d="m 341.32479,257.96168 c 7.56509,-42.41137 17.60497,-99.04722 22.31091,-125.85744 4.70594,-26.81021 8.90199,-48.467508 9.32456,-48.127319 0.42254,0.340184 2.33975,2.331568 4.26043,4.425314 l 3.49215,3.806818 4.79717,-2.714539 c 5.44584,-3.081596 6.23538,-2.907006 9.59966,2.122654 1.18144,1.766279 2.66527,3.259267 3.29734,3.317748 0.63211,0.05845 3.18873,-1.10334 5.68139,-2.581867 l 4.5321,-2.688211 3.50989,4.092569 c 1.93043,2.250905 3.87805,4.221838 4.32804,4.379858 0.44999,0.157939 2.85649,-0.925341 5.34775,-2.407441 l 4.52958,-2.694703 3.92383,4.129186 c 2.1581,2.271062 4.28912,4.156783 4.73563,4.190523 0.44647,0.0337 2.61212,-1.04625 4.81255,-2.399924 2.20043,-1.353675 4.33219,-2.344869 4.73727,-2.20264 0.40508,0.142199 -1.40242,12.376114 -4.01662,27.186384 -2.61449,14.81022 -6.05681,34.35164 -7.64994,43.4253 -18.70956,106.53738 -31.85011,180.17774 -32.28291,180.91422 -0.39918,0.67931 -1.09911,0.14567 -2.8,-2.13467 -1.24722,-1.67219 -3.1004,-3.70529 -4.11806,-4.51797 -1.84247,-1.47137 -1.86934,-1.46573 -6.36219,1.33613 -3.21572,2.00539 -4.78951,2.54785 -5.47819,1.88819 -0.53148,-0.50906 -2.46075,-2.52659 -4.28733,-4.48341 l -3.32098,-3.55786 -4.53304,2.72711 c -5.26312,3.16637 -6.45739,2.92056 -9.78732,-2.01454 -1.24907,-1.852 -2.73837,-3.41051 -3.30822,-3.46325 -0.56981,-0.0527 -3.20091,1.21447 -5.84685,2.816 l -4.81081,2.91186 -1.86523,-2.76751 c -1.02532,-1.52208 -2.77929,-3.59258 -3.89635,-4.60097 l -2.03096,-1.83344 -4.97462,2.89588 c -2.73607,1.59273 -5.11643,2.60288 -5.2897,2.24476 -0.17331,-0.35812 5.87451,-35.35136 13.43955,-77.76273 z"
       id="path3446-5-7"
       inkscape:export-filename="C:\Users\MeAndUnique\AppData\Roaming\SmiteWorks\Fantasy Grounds\extensions\TemporalFixation\graphics\icons\TemporalFixation_Big.png"
       inkscape:export-xdpi="7.1387501"
       inkscape:export-ydpi="7.1387501" />
  </g>
</svg>
